<?xml version="1.0" standalone="no"?>
<!DOCTYPE svg PUBLIC "-//W3C//DTD SVG 20010904//EN"
 "http://www.w3.org/TR/2001/REC-SVG-20010904/DTD/svg10.dtd">
<svg version="1.0" xmlns="http://www.w3.org/2000/svg"
 width="142.000000pt" height="142.000000pt" viewBox="0 0 142.000000 142.000000"
 preserveAspectRatio="xMidYMid meet">
<metadata>
Created by potrace 1.11, written by Peter Selinger 2001-2013
</metadata>
<g transform="translate(0.000000,142.000000) scale(0.100000,-0.100000)"
fill="#000000" stroke="none">
<path d="M708 1248 c-42 -43 -74 -78 -70 -79 4 0 -1 -4 -11 -8 -16 -6 -15 -11
14 -51 68 -93 144 -206 158 -232 19 -36 70 -88 87 -88 30 0 25 47 -16 156 -23
60 -43 114 -45 119 -1 6 -5 19 -9 30 -16 41 -18 51 -22 80 -6 43 3 73 24 77
24 6 56 -10 71 -34 13 -21 81 -174 85 -193 3 -10 12 -36 26 -70 18 -47 72
-152 88 -171 23 -27 102 -84 117 -84 6 0 12 6 12 13 0 15 18 123 38 234 3 16
8 44 11 63 3 19 7 46 10 60 2 14 7 41 10 60 3 19 8 46 10 60 3 14 6 45 7 69
l2 43 -110 4 c-224 8 -340 13 -340 14 0 1 -16 3 -35 4 -32 2 -42 -5 -112 -76z"/>
<path d="M478 1007 l-56 -57 84 -71 c46 -40 85 -75 86 -78 2 -3 27 -27 57 -53
56 -50 87 -60 93 -30 4 18 -24 74 -53 105 -9 10 -25 33 -35 52 -10 19 -22 35
-26 35 -5 0 -8 5 -8 12 0 6 -11 26 -25 44 -14 18 -25 37 -25 43 0 6 -4 11 -8
11 -5 0 -13 10 -19 22 -9 20 -12 18 -65 -35z"/>
<path d="M234 756 l-110 -114 -3 -73 c-7 -182 -6 -211 4 -215 5 -2 101 -6 211
-8 111 -2 207 -6 213 -10 6 -4 11 -3 11 3 0 6 8 7 22 2 19 -7 68 -4 68 5 0 1
-10 20 -22 41 -28 46 -63 78 -103 94 -16 6 -58 24 -93 40 -35 16 -66 29 -70
29 -5 0 -24 16 -43 36 -33 35 -34 36 -14 50 21 16 53 14 100 -5 43 -18 108
-42 122 -45 7 -1 16 -5 19 -9 4 -4 16 -7 26 -7 10 0 18 -4 18 -9 0 -11 33 -9
42 3 9 13 -17 61 -43 80 -12 8 -70 62 -129 120 -59 59 -109 106 -111 106 -3 0
-54 -51 -115 -114z"/>
<path d="M901 648 c-17 -17 -31 -34 -31 -38 0 -3 -22 -23 -50 -45 -53 -42 -61
-59 -32 -72 16 -8 29 -9 73 -4 9 0 33 12 53 26 20 13 36 21 37 17 0 -4 2 -32
4 -62 5 -73 7 -80 17 -80 4 0 8 -5 8 -11 0 -14 26 -36 59 -50 14 -5 74 -12
135 -15 61 -3 113 -6 116 -6 36 -2 41 9 43 100 1 17 4 32 7 32 3 0 6 12 6 28
1 15 5 54 9 87 4 33 8 71 9 84 l1 24 -185 2 c-102 1 -199 5 -216 9 -27 5 -37
1 -63 -26z"/>
<path d="M706 252 c-2 -4 -8 -25 -12 -47 -10 -51 -11 -55 -14 -57 -1 -2 -3
-12 -5 -23 -1 -11 -5 -27 -9 -35 -12 -29 9 -40 90 -45 126 -8 216 -17 317 -29
15 -2 27 0 28 3 0 3 2 22 5 41 2 19 6 53 9 75 2 22 4 40 5 40 1 0 3 17 5 38 3
36 -8 51 -18 24 -5 -14 -95 -65 -129 -74 -79 -19 -159 5 -226 67 -36 33 -38
34 -46 22z"/>
</g>
</svg>
